<svg xmlns="http://www.w3.org/2000/svg" width="1920" height="1080" fill="none"><g clip-path="url(#a)"><path fill="#000" d="M0 0h1920v1080H0z"/><g filter="url(#b)"><ellipse cx="376.334" cy="712.281" fill="#421F8B" rx="1092.96" ry="641.007" transform="rotate(-6.481 376.334 712.281)"/></g><g filter="url(#c)"><path fill="#0E1894" d="M740.168-17.756C267.491-3.152-39.345 104.064-335.246 358.023-934.686 872.495 2622.26 1076.32 2117.54 498.578 1799.3 134.298 1343.93-36.409 740.168-17.756Z"/></g><g filter="url(#d)"><path fill="#00BAE2" fill-opacity=".5" d="M222.99 342.491c-173.036-18.404-289.063-.184-406.657 63.858-238.225 129.736 1052.005 365.058 889.712 162.272-102.33-127.861-262.034-202.622-483.055-226.13Z"/></g><g filter="url(#e)"><path fill="url(#f)" d="M1373.02 703.434c88.87-100.894-353.84-696.663-309.5-814.934 85.6-228.303 470.35 140.528 572.09-83.482 207.59-457.078 566.57 981.716 55.97 1244.722-320.98 165.33-1260.222 204.97-977.074 0 113.08-81.858 221.308-73.215 349.014-139.842 131.8-68.76 218.82-103.501 309.5-206.464Z"/></g></g><defs><filter id="b" width="2776.86" height="1897.74" x="-1012.09" y="-236.589" color-interpolation-filters="sRGB" filterUnits="userSpaceOnUse"><feFlood flood-opacity="0" result="BackgroundImageFix"/><feBlend in="SourceGraphic" in2="BackgroundImageFix" result="shape"/><feGaussianBlur result="effect1_foregroundBlur_53_2" stdDeviation="150"/></filter><filter id="c" width="3170.32" height="1466.98" x="-703.552" y="-319.134" color-interpolation-filters="sRGB" filterUnits="userSpaceOnUse"><feFlood flood-opacity="0" result="BackgroundImageFix"/><feBlend in="SourceGraphic" in2="BackgroundImageFix" result="shape"/><feGaussianBlur result="effect1_foregroundBlur_53_2" stdDeviation="150"/></filter><filter id="d" width="1333.33" height="712.159" x="-413.116" y="135.694" color-interpolation-filters="sRGB" filterUnits="userSpaceOnUse"><feFlood flood-opacity="0" result="BackgroundImageFix"/><feBlend in="SourceGraphic" in2="BackgroundImageFix" result="shape"/><feGaussianBlur result="effect1_foregroundBlur_53_2" stdDeviation="100"/></filter><filter id="e" width="1791" height="1973" x="412" y="-534" color-interpolation-filters="sRGB" filterUnits="userSpaceOnUse"><feFlood flood-opacity="0" result="BackgroundImageFix"/><feBlend in="SourceGraphic" in2="BackgroundImageFix" result="shape"/><feGaussianBlur result="effect1_foregroundBlur_53_2" stdDeviation="125"/></filter><linearGradient id="f" x1="1548.35" x2="1331.85" y1="223.883" y2="1006.99" gradientUnits="userSpaceOnUse"><stop stop-color="#0038FF"/><stop offset="1" stop-color="#ECCDFF"/></linearGradient><clipPath id="a"><path fill="#fff" d="M0 0h1920v1080H0z"/></clipPath></defs></svg>